<svg xmlns="http://www.w3.org/2000/svg" xmlns:xlink="http://www.w3.org/1999/xlink" id="Layer_1" x="0" y="0" version="1.1" viewBox="0 0 247 281.4" xml:space="preserve" style="enable-background:new 0 0 247 281.4"><style type="text/css">.st0{fill:#eee}.st1{fill:#e1e1e1}.st2{fill:#bdbdbd}.st3{fill:#fff}</style><g><path d="M123.5,0L123.5,0C85.9,17.4,44.1,27.1,0,27.1l0,0l0,90.4C0,186.7,47.7,250,123.5,281.4h0h0 C199.3,250,247,186.7,247,117.5l0-90.4C202.9,27.1,161.1,17.4,123.5,0L123.5,0z" class="st0"/><path d="M51.1,234L247,99.6V27.1h0L16,185.5C24.6,203,36.4,219.4,51.1,234z" class="st1"/><path d="M123.6,0L123.6,0l-0.1,281.4C199.3,250,247,186.7,247,117.5l0-90.4h0C202.9,27.1,161.1,17.4,123.6,0z" class="st1"/></g><polygon points="123.5 184.3 247 99.6 247 27.1 247 27.1 247 27.1 123.5 111.8" class="st2"/><circle cx="123.5" cy="130.5" r="54" class="st3"/><g><path d="M123.5,95.7c8.9,0,16.1,7.2,16.1,16.1c0,8.9-7.2,16.1-16.1,16.1s-16.1-7.2-16.1-16.1 C107.4,103,114.6,95.7,123.5,95.7z" class="st2"/><path d="M123.5,173.8c-13.4,0-25.3-6.8-32.2-17.3c0.2-10.6,21.5-16.5,32.2-16.5s32,5.9,32.2,16.5 C148.8,167,136.9,173.8,123.5,173.8z" class="st2"/></g></svg>